<svg width="40" height="40" viewBox="0 0 40 40" fill="none" xmlns="http://www.w3.org/2000/svg">
<path d="M32.6621 12.6621C32.6621 5.68021 26.9819 0 20.0001 0C13.0183 0 7.33801 5.68021 7.33801 12.6621C7.33801 18.8228 11.7611 23.9691 17.5982 25.0946V28.3891H13.7552C12.4287 28.3891 11.3533 29.4645 11.3533 30.791C11.3533 32.1175 12.4287 33.1929 13.7552 33.1929H17.5982V37.5981C17.5982 38.9247 18.6736 40 20.0001 40C21.3266 40 22.402 38.9246 22.402 37.5981V33.1929H26.245C27.5715 33.1929 28.6469 32.1175 28.6469 30.791C28.6469 29.4645 27.5715 28.3891 26.245 28.3891H22.402V25.0946C28.2391 23.9691 32.6621 18.8228 32.6621 12.6621ZM12.1418 12.6621C12.1418 8.32905 15.6669 4.80381 20 4.80381C24.3331 4.80381 27.8582 8.32892 27.8582 12.6621C27.8582 16.9951 24.3331 20.5203 20 20.5203C15.6671 20.5203 12.1418 16.9952 12.1418 12.6621Z" fill="white"/>
</svg>
