<svg width="800" height="800" viewBox="0 0 800 800" fill="none" xmlns="http://www.w3.org/2000/svg">
<g clip-path="url(#clip0_127_206)">
<path d="M682.142 480.14C676.292 490.273 679.782 503.227 689.892 509.064C700.024 514.914 712.989 511.46 718.839 501.328C724.682 491.208 721.198 478.239 711.066 472.389C700.956 466.552 687.984 470.02 682.142 480.14Z" fill="#D94A37"/>
<path d="M500.843 675.636C492.732 670.953 482.379 673.737 477.696 681.847C473.019 689.947 475.793 700.292 483.904 704.975C492.015 709.658 502.361 706.886 507.036 698.787C511.719 690.676 508.954 680.319 500.843 675.636Z" fill="#D94A37"/>
<path d="M447.011 714.691C430.389 705.094 409.142 710.79 399.546 727.41C389.957 744.018 395.651 765.266 412.272 774.862C428.892 784.459 450.141 778.765 459.73 762.156C469.326 745.538 463.632 724.287 447.011 714.691Z" fill="#D94A37"/>
<path d="M92.6687 561.222C105.224 568.47 121.278 564.169 128.527 551.614C135.776 539.058 131.474 523.004 118.919 515.755C106.364 508.507 90.3093 512.808 83.0606 525.364C75.8118 537.919 80.1135 553.973 92.6687 561.222Z" fill="#D94A37"/>
<path d="M100.765 413.367C94.2996 409.635 86.0079 411.837 82.2547 418.338C78.5219 424.803 80.7556 433.097 87.2197 436.829C93.7095 440.575 101.985 438.348 105.717 431.884C109.469 425.382 107.253 417.113 100.765 413.367Z" fill="#D94A37"/>
<path d="M209.813 100.866C218.324 105.78 229.196 102.856 234.109 94.3455C239.016 85.8463 236.112 74.97 227.601 70.0559C219.091 65.1426 208.218 68.0651 203.311 76.5643C198.398 85.0743 201.303 95.9528 209.813 100.866Z" fill="#D94A37"/>
<path d="M401.649 115.799C412.98 122.341 427.478 118.455 434.034 107.1C440.569 95.7804 436.686 81.2821 425.354 74.7399C414.023 68.1977 399.522 72.0833 392.987 83.4012C386.432 94.7556 390.318 109.257 401.649 115.799Z" fill="#D94A37"/>
<path d="M628.693 612.562C577.495 552.535 559.798 553.868 545.553 505.897C542.135 494.442 555.765 471.216 594.413 500.863C613.787 515.734 634.688 512.378 644.217 495.875C650.569 484.873 646.139 461.924 622.006 458.116C587.067 452.614 575.725 429.422 580.305 413.508C586.067 393.372 602.636 376.185 697.443 381.912C813.667 388.876 809.328 276.943 693.866 313.346C642.718 329.455 619.728 335.068 592.478 334.005C568.024 333.036 551.431 309.82 581.598 296.928C593.288 291.937 608.425 291.619 617.741 282.592C631.028 269.732 626.333 247.947 615.096 241.46C603.86 234.972 585.993 233.45 572.068 247.415C547.994 273.856 532.035 262.624 529.132 249.301C523.544 223.851 540.247 207.571 560.231 178.987C583.718 145.419 651.767 75.8729 584.088 44.8238C551.451 29.8527 525.454 53.7586 505.35 111.708C480.423 183.659 435.475 217.971 410.077 215.486C379.534 212.52 369.672 201.262 338.587 136.095C322.078 101.438 282.294 100.522 263.354 119.051C246.661 135.367 248.457 167.767 267.146 188.711C295.936 220.99 310.137 232.825 321.455 251.334C332.498 269.45 322.196 291.963 294.942 301.978C267.657 311.993 235.227 271.954 176.171 231.994C74.0809 162.929 30.0122 294.527 150.139 317.696C218.772 330.913 240.425 349.275 243.356 367.111C247.396 391.714 224.954 408.865 189.01 409.554C74.3089 411.791 132.84 530.624 209.098 479.816C240.972 458.596 263.172 459.236 276.112 475.483C286.662 488.753 276.633 546.517 219.74 599.399C169.107 646.433 134.738 708.731 176.089 732.605C214.739 754.92 254.015 700.846 283.633 634.346C294.733 609.471 317.534 574.159 341.044 575.571C359.95 576.705 387.587 581.77 384.468 623.117C381.635 661.086 414.979 674.458 436.606 664.957C452.415 657.989 472.366 633.804 445.188 599.603C412.816 558.813 454.255 522.602 483.613 545.428C516.027 570.616 532.684 597.521 553.908 657.404C583.541 740.937 705.579 702.702 628.693 612.562Z" fill="#D94A37"/>
</g>
<defs>
<clipPath id="clip0_127_206">
<rect width="800" height="800" fill="white"/>
</clipPath>
</defs>
</svg>
