<svg width="42" height="42" viewBox="0 0 42 42" fill="none" xmlns="http://www.w3.org/2000/svg">
<path d="M32.6108 6.11905L25.3047 13.4254C22.8292 11.6159 19.7768 10.5476 16.4762 10.5476C8.20507 10.5476 1.5 17.2526 1.5 25.5238C1.5 33.795 8.20507 40.5 16.4762 40.5C24.7474 40.5 31.4524 33.795 31.4524 25.5238C31.4524 22.2215 30.383 19.1678 28.5721 16.6917L35.881 9.3828V12.8571C35.881 14.1326 36.9149 15.1667 38.1905 15.1667C39.466 15.1667 40.5 14.1327 40.5 12.8571V5.61905C40.5 3.34416 38.6559 1.5 36.381 1.5H29.1429C27.8673 1.5 26.8333 2.53402 26.8333 3.80952C26.8333 5.08502 27.8673 6.11905 29.1429 6.11905H32.6108ZM16.4762 35.8743C10.7597 35.8743 6.12565 31.2403 6.12565 25.5238C6.12565 19.8074 10.7598 15.1733 16.4762 15.1733C22.1926 15.1733 26.8266 19.8073 26.8266 25.5238C26.8266 31.2403 22.1926 35.8743 16.4762 35.8743Z" fill="white" stroke="white"/>
</svg>
