<svg width="800" height="800" viewBox="0 0 800 800" fill="none" xmlns="http://www.w3.org/2000/svg">
<path d="M490.83 271.871C542.513 241.263 568.357 225.959 587.337 236.817C606.317 247.676 605.863 277.506 604.957 337.167L604.72 352.6C604.463 369.553 604.333 378.03 607.493 385.48C610.653 392.927 616.743 398.507 628.923 409.663L640.01 419.82C682.873 459.083 704.303 478.713 699.28 500.76C694.257 522.803 666.103 532.663 609.803 552.38L595.237 557.483C579.237 563.087 571.237 565.887 565.1 571.503C558.963 577.123 555.383 584.917 548.223 600.51L541.707 614.707C516.51 669.58 503.913 697.017 481.83 699.783C459.747 702.55 442.8 678.813 408.91 631.34L400.143 619.057C390.513 605.567 385.697 598.823 378.743 594.843C371.793 590.867 363.49 590.107 346.883 588.587L331.768 587.203C273.335 581.857 244.119 579.18 235.494 558.847C226.869 538.51 244.548 513.98 279.905 464.923L289.053 452.23C299.1 438.29 304.124 431.32 305.964 423.243C307.805 415.17 306.253 406.903 303.15 390.37L300.325 375.32C289.406 317.14 283.947 288.051 300.7 272.717C317.454 257.383 345.327 265.96 401.067 283.113L415.49 287.551C431.33 292.425 439.25 294.862 447.34 293.849C455.43 292.836 462.773 288.487 477.46 279.789L490.83 271.871Z" stroke="black" stroke-width="50"/>
<path d="M450 216.667L433.333 200M316.667 83.3333L383.333 150" stroke="black" stroke-width="50" stroke-linecap="round"/>
<path d="M216.667 216.667L133.333 133.333" stroke="black" stroke-width="50" stroke-linecap="round"/>
<path d="M200 400L150 350M66.6667 266.667L83.3334 283.333" stroke="black" stroke-width="50" stroke-linecap="round"/>
</svg>
